<?xml version="1.0" standalone="no"?>
<!DOCTYPE svg PUBLIC "-//W3C//DTD SVG 20010904//EN"
 "http://www.w3.org/TR/2001/REC-SVG-20010904/DTD/svg10.dtd">
<svg version="1.0" xmlns="http://www.w3.org/2000/svg"
 width="150.000000pt" height="150.000000pt" viewBox="0 0 150.000000 150.000000"
 preserveAspectRatio="xMidYMid meet">

<g transform="translate(0.000000,150.000000) scale(0.100000,-0.100000)"
fill="#000000" stroke="none">
<path d="M854 1306 c-61 -19 -150 -83 -182 -129 -75 -111 -114 -123 -187 -56
-24 22 -61 67 -82 99 -41 65 -75 86 -121 75 -37 -8 -61 -34 -101 -110 -17 -33
-65 -102 -106 -153 -41 -51 -75 -97 -75 -101 0 -21 37 -36 89 -36 44 0 72 8
123 33 36 17 68 32 72 32 3 0 6 -13 6 -29 0 -30 22 -61 43 -61 6 0 26 5 44 12
30 11 36 10 54 -9 l21 -20 -59 -67 c-36 -43 -106 -102 -187 -160 -147 -104
-177 -136 -155 -162 12 -14 27 -16 116 -11 151 10 149 -6 -12 -73 -55 -22
-106 -47 -114 -55 -20 -20 -6 -44 35 -61 42 -18 143 -13 302 12 51 9 98 14
105 11 6 -2 -12 -16 -41 -31 -99 -50 -80 -80 48 -72 189 10 474 156 601 306
31 37 48 49 68 48 14 0 43 3 63 7 51 10 60 -13 23 -56 -56 -67 -10 -113 72
-70 100 52 154 146 174 303 11 89 -3 133 -46 144 -21 5 -86 -12 -157 -41 -17
-7 -17 -4 -2 36 35 100 10 241 -60 329 -86 108 -242 157 -372 116z m0 -305 c9
-16 29 -41 46 -57 26 -25 28 -30 12 -36 -28 -11 -87 -9 -100 4 -17 17 -15 84
4 102 20 21 21 21 38 -13z m316 -105 c0 -35 -37 -76 -69 -76 -25 0 -92 53 -80
64 5 4 119 34 137 35 6 1 12 -10 12 -23z"/>
</g>
</svg>
