<?xml version="1.0" standalone="no"?>
<!DOCTYPE svg PUBLIC "-//W3C//DTD SVG 20010904//EN"
 "http://www.w3.org/TR/2001/REC-SVG-20010904/DTD/svg10.dtd">
<svg version="1.0" xmlns="http://www.w3.org/2000/svg"
 width="150.000000pt" height="150.000000pt" viewBox="0 0 150.000000 150.000000"
 preserveAspectRatio="xMidYMid meet">

<g transform="translate(0.000000,150.000000) scale(0.100000,-0.100000)"
fill="#000000" stroke="none">
<path d="M680 1489 c-125 -18 -258 -91 -331 -182 -75 -93 -97 -155 -134 -377
-60 -351 -107 -506 -197 -648 -43 -69 4 -124 119 -140 53 -7 65 -14 99 -49 75
-79 160 -80 249 -3 26 22 54 40 64 40 9 0 42 -24 72 -54 95 -94 163 -94 258 0
30 30 63 54 72 54 10 0 38 -18 64 -40 89 -77 174 -76 249 3 34 35 46 42 99 49
115 16 162 71 119 140 -91 143 -141 310 -197 648 -31 188 -39 221 -78 294 -96
181 -323 296 -527 265z m197 -107 c111 -35 196 -106 251 -210 25 -47 37 -91
57 -209 60 -361 120 -577 190 -684 l24 -37 -57 -6 c-62 -7 -98 -26 -142 -75
-41 -44 -77 -42 -134 9 -85 72 -161 67 -240 -16 -35 -36 -60 -54 -76 -54 -16
0 -41 18 -76 54 -79 83 -155 88 -240 16 -57 -51 -93 -53 -134 -9 -44 49 -80
68 -142 75 l-57 6 24 37 c70 106 127 310 185 658 32 191 58 258 131 333 112
115 284 159 436 112z"/>
<path d="M592 948 c-51 -25 -30 -108 28 -108 60 0 79 83 25 108 -14 7 -27 12
-28 11 -1 0 -12 -5 -25 -11z"/>
<path d="M832 944 c-43 -30 -20 -104 33 -104 53 0 76 74 33 104 -12 9 -27 16
-33 16 -6 0 -21 -7 -33 -16z"/>
</g>
</svg>
