<?xml version="1.0" standalone="no"?>
<!DOCTYPE svg PUBLIC "-//W3C//DTD SVG 20010904//EN"
 "http://www.w3.org/TR/2001/REC-SVG-20010904/DTD/svg10.dtd">
<svg version="1.0" xmlns="http://www.w3.org/2000/svg"
 width="150.000000pt" height="150.000000pt" viewBox="0 0 150.000000 150.000000"
 preserveAspectRatio="xMidYMid meet">

<g transform="translate(0.000000,150.000000) scale(0.100000,-0.100000)"
fill="#000000" stroke="none">
<path d="M863 1305 c-88 -27 -151 -77 -233 -185 -49 -63 -100 -38 -185 91 -52
79 -86 98 -144 80 -47 -14 -49 -16 -101 -118 -33 -65 -55 -94 -114 -147 -80
-71 -96 -104 -71 -142 18 -28 84 -48 128 -38 38 8 123 49 132 64 12 20 24 10
31 -26 9 -47 39 -67 93 -58 29 5 41 3 41 -5 0 -27 -104 -120 -186 -166 -120
-68 -162 -100 -182 -141 -16 -36 -16 -36 8 -56 22 -18 35 -20 103 -15 42 3 77
4 77 2 0 -2 -43 -20 -96 -41 -108 -43 -129 -65 -101 -108 27 -41 72 -49 206
-37 151 14 146 14 127 -5 -20 -19 -20 -25 -2 -50 12 -16 26 -19 98 -18 177 2
417 114 576 267 41 40 82 71 95 72 12 1 35 5 50 10 l28 7 -25 -37 c-30 -43
-33 -77 -10 -99 21 -22 49 -20 102 5 114 55 181 184 185 353 2 51 -2 68 -18
86 -33 37 -60 42 -116 20 -67 -27 -69 -26 -57 17 26 94 -3 216 -73 304 -79
101 -245 152 -366 114z m223 -50 c71 -31 128 -86 161 -153 23 -47 28 -70 27
-132 0 -46 -7 -89 -16 -112 -25 -57 -7 -65 77 -33 79 29 88 30 109 9 35 -35
11 -208 -42 -294 -32 -53 -112 -110 -153 -110 -36 0 -37 18 -4 58 14 17 25 39
25 51 0 28 -32 44 -65 31 -43 -17 -44 -13 -10 52 19 34 31 66 29 70 -13 20
-32 3 -63 -57 -40 -78 -143 -192 -220 -244 -163 -111 -396 -193 -494 -174 -37
7 -34 17 13 38 22 10 46 26 55 35 14 15 14 18 0 30 -12 10 -24 10 -53 2 -49
-15 -200 -32 -283 -32 -66 0 -96 14 -87 40 2 6 44 27 93 47 109 43 135 60 135
83 0 25 -35 31 -110 19 -162 -26 -142 33 46 136 58 33 112 73 156 117 l67 67
20 -27 c15 -21 22 -24 32 -15 9 9 7 18 -9 41 -34 47 -52 57 -116 62 l-60 5
-11 49 c-5 27 -15 51 -22 53 -7 3 -40 -15 -73 -39 -56 -39 -67 -43 -122 -43
-106 0 -104 40 5 130 50 41 69 67 103 135 23 46 50 89 60 97 29 21 81 16 99
-9 77 -111 110 -151 138 -169 44 -28 94 -20 127 21 74 91 120 134 163 157 93
46 181 49 273 8z"/>
<path d="M840 939 c-26 -47 15 -91 69 -74 19 6 18 8 -12 50 -18 24 -35 44 -39
44 -4 1 -12 -8 -18 -20z"/>
<path d="M1075 859 c-16 -6 -36 -13 -44 -15 -23 -7 18 -44 49 -44 30 0 46 14
52 45 4 23 -15 28 -57 14z"/>
</g>
</svg>
